<svg xmlns="http://www.w3.org/2000/svg" width="17" height="16" viewBox="0 0 17 16" fill="none" class="replaced-svg">
        <path fill-rule="evenodd" clip-rule="evenodd" d="M9.016 12.338a1.003 1.003 0 0 0-.93 0L5.894 13.49a1 1 0 0 1-1.45-1.054l.418-2.44a1.002 1.002 0 0 0-.288-.884L2.803 7.384a.999.999 0 0 1 .554-1.704l2.45-.356a.999.999 0 0 0 .751-.548l1.096-2.22a1 1 0 0 1 1.793.002l1.095 2.218c.146.296.428.5.754.548l2.448.355a1 1 0 0 1 .554 1.705l-1.771 1.728a1 1 0 0 0-.288.885l.418 2.439a1 1 0 0 1-1.45 1.054" fill="#0A0A0A"></path>
      </svg>