<svg width="24" height="24" viewBox="0 0 24 24" fill="none" xmlns="http://www.w3.org/2000/svg">
    <path d="M17.429 7.308a1 1 0 1 1 0-2 1 1 0 0 1 0 2" stroke="#E00800" stroke-linecap="round" stroke-linejoin="round"/>
    <path clip-rule="evenodd" d="M19.48 3.5h-7.023a1 1 0 0 0-1 1v4.016a1 1 0 0 0 1 1h2.007v2.506l3.008-2.506h2.008a1 1 0 0 0 1-1V4.5a1 1 0 0 0-1-1z" stroke="#E00800" stroke-linecap="round" stroke-linejoin="round"/>
    <path d="M14.429 7.308a1 1 0 1 1 0-2 1 1 0 0 1 0 2" stroke="#E00800" stroke-linecap="round" stroke-linejoin="round"/>
    <path d="M3.5 20.474h17M19.469 12.516v5a1 1 0 0 1-1 1h-13a1 1 0 0 1-1-1v-7a1 1 0 0 1 1-1h3" stroke="#0A0A0A" stroke-linecap="round" stroke-linejoin="round"/>
</svg>
