<svg width="24" height="24" viewBox="0 0 24 24" fill="none" xmlns="http://www.w3.org/2000/svg">
    <path d="M9.608 6.004c.122-.845.249-1.123.663-1.623.414-.5 1.293-.88 2.12-.88a3 3 0 0 1 0 6v1.83" stroke="#E00800" stroke-linecap="round" stroke-linejoin="round"/>
    <circle cx="12.4" cy="13.5" r=".5" stroke="#E00800" stroke-linecap="round" stroke-linejoin="round"/>
    <path d="M7.392 3.5H5A1.5 1.5 0 0 0 3.5 5v9A1.5 1.5 0 0 0 5 15.5h4.5v5l6-5H20a1.5 1.5 0 0 0 1.5-1.5V5A1.5 1.5 0 0 0 20 3.5h-2.608" stroke="#0A0A0A" stroke-linecap="round" stroke-linejoin="round"/>
</svg>
