<svg width="24" height="24" viewBox="0 0 24 24" fill="none" xmlns="http://www.w3.org/2000/svg">
    <path d="M14.51 17.91v1.03c0 .83-.67 1.5-1.5 1.5H6c-.82 0-1.5-.67-1.5-1.5V5c0-.83.68-1.5 1.5-1.5h7.01c.83 0 1.5.67 1.5 1.5v1.02M8.167 18.431h2.678" stroke="#0A0A0A" stroke-linecap="round" stroke-linejoin="round"/>
    <path d="M20.418 8.075v2.442h-2.07" stroke="#E00800" stroke-linecap="round" stroke-linejoin="round"/>
    <path d="M12.602 12.033c0-2.187 1.752-3.96 3.915-3.96 1.537 0 2.584 1 3.224 2.304M12.602 15.416v-1.744h2.07" stroke="#E00800" stroke-linecap="round" stroke-linejoin="round"/>
    <path d="M20.418 12.017c0 2.187-1.752 3.96-3.914 3.96a3.91 3.91 0 0 1-3.508-2.2" stroke="#E00800" stroke-linecap="round" stroke-linejoin="round"/>
</svg>
